<?xml version="1.0" encoding="utf-8"?>
<!-- Generator: Adobe Illustrator 26.1.0, SVG Export Plug-In . SVG Version: 6.00 Build 0)  -->
<svg version="1.1" id="Calque_1" xmlns="http://www.w3.org/2000/svg" xmlns:xlink="http://www.w3.org/1999/xlink" x="0px" y="0px"
	 viewBox="0 0 380 143" style="enable-background:new 0 0 380 143;" xml:space="preserve">
<style type="text/css">
	.st0{clip-path:url(#SVGID_00000064315356867382189600000010139234380997324675_);}
	.st1{fill:#34E0A1;}
</style>
<g>
	<defs>
		<rect id="SVGID_1_" x="7.2" y="8.8" width="91" height="126"/>
	</defs>
	<clipPath id="SVGID_00000103952747156137768560000011921292825471985854_">
		<use xlink:href="#SVGID_1_"  style="overflow:visible;"/>
	</clipPath>
	<g style="clip-path:url(#SVGID_00000103952747156137768560000011921292825471985854_);">
		<path class="st1" d="M45.5,111.3c-1.8-5.2-5-9.8-9.4-13.2l-10.7-8.3C14.5,81.3,7.8,68.4,7.3,54.5c0-25.2,20.4-45.7,45.5-45.7
			c25.1,0,45.5,20.4,45.5,45.7C97.6,68.4,91,81.3,80,89.9l-10.7,8.3c-4.3,3.4-7.6,8-9.4,13.2l-1.3,3.7c-0.9,2.6-3.3,4.3-6,4.3
			c-2.7,0-5.1-1.7-6-4.3L45.5,111.3z M52.7,134.8c-10,0-18.2-1.2-18.2-2.7c0-1.5,8.1-2.7,18.2-2.7s18.2,1.2,18.2,2.7
			C70.9,133.6,62.8,134.8,52.7,134.8z M52.7,90.1c20.1,0,36.4-16.4,36.4-36.5c0-20.2-16.3-36.5-36.4-36.5S16.4,33.4,16.4,53.6
			C16.4,73.8,32.6,90.1,52.7,90.1z M46.1,50.4L47.8,79c0.1,1.7-1.7,3.2-3.8,3.3c-2.1,0.1-4-1.2-4.1-2.9c0-0.1,0-0.2,0-0.3l1.7-28.6
			c-2.9-0.7-4.2-3.3-4.2-6.4V29.2c0-0.7,0.5-1.2,1.2-1.2c0.7,0,1.2,0.5,1.2,1.2v12.1c0,0.3,0.3,0.6,0.6,0.6s0.6-0.3,0.6-0.6V29.2
			c0-0.7,0.5-1.2,1.2-1.2c0.7,0,1.2,0.5,1.2,1.2v12.1c0,0.3,0.3,0.6,0.6,0.6c0.3,0,0.6-0.3,0.6-0.6V29.2c0-0.7,0.5-1.2,1.2-1.2
			c0.7,0,1.2,0.5,1.2,1.2v12.1c0,0.3,0.3,0.6,0.6,0.6s0.6-0.3,0.6-0.6V29.2c0-0.7,0.5-1.2,1.2-1.2c0.7,0,1.2,0.5,1.2,1.2V44
			C50.3,47.2,49,49.8,46.1,50.4z M69.1,58.1v20.5c0,2.1-1.9,3.8-4.2,3.8c-2.3,0-4.2-1.7-4.2-3.8V59.7L58,58.8v-20
			c0-6,4.5-10.8,11.1-10.8V58.1z"/>
	</g>
</g>
<g>
	<g transform="translate(102.525181, 199.913704)">
		<g>
			<path d="M-9.9-72.1c-1.2,0-1.8-0.6-1.8-1.8v-16c0-1.2,0.6-1.8,1.8-1.8h6.6c2.1,0,3.8,0.5,4.9,1.5c1.2,1,1.8,2.4,1.8,4.3
				c0,1.5-0.4,2.7-1.1,3.6c-0.8,0.9-1.8,1.6-3.2,1.9c0.9,0.3,1.7,1,2.3,2.1l2.1,3.8c0.3,0.6,0.4,1.1,0.2,1.6
				c-0.2,0.5-0.7,0.8-1.4,0.8c-0.5,0-0.9-0.1-1.2-0.3c-0.3-0.2-0.6-0.6-0.8-1l-2.8-5.1c-0.3-0.6-0.7-1-1.2-1.2
				c-0.4-0.2-1-0.3-1.7-0.3h-2.6v6.2C-8.2-72.7-8.8-72.1-9.9-72.1z M-8.2-82.7h4.3c2.6,0,3.9-1,3.9-3.1C0-88-1.3-89-3.9-89h-4.3
				V-82.7z"/>
		</g>
	</g>
</g>
<g>
	<g transform="translate(118.168988, 199.913704)">
		<g>
			<path d="M-0.2-72.1c-1.5,0-2.8-0.3-3.9-0.9c-1.1-0.6-1.9-1.4-2.5-2.4c-0.6-1-0.9-2.3-0.9-3.7c0-1.4,0.3-2.6,0.9-3.7
				c0.6-1,1.4-1.9,2.4-2.5c1-0.6,2.2-0.9,3.5-0.9c1.9,0,3.4,0.6,4.5,1.8c1.1,1.2,1.7,2.9,1.7,5c0,0.7-0.4,1-1.3,1h-8.3
				c0.2,2.4,1.6,3.6,4.1,3.6c0.5,0,1-0.1,1.6-0.2c0.6-0.1,1.2-0.3,1.7-0.6c0.5-0.3,0.9-0.3,1.2-0.2c0.3,0.1,0.6,0.3,0.7,0.6
				c0.1,0.3,0.2,0.6,0.1,1c-0.1,0.4-0.4,0.7-0.8,0.9c-0.6,0.4-1.4,0.7-2.2,0.9C1.3-72.2,0.5-72.1-0.2-72.1z M-0.7-83.8
				c-1,0-1.8,0.3-2.4,0.9s-1,1.5-1.1,2.5h6.8c-0.1-1.1-0.4-2-0.9-2.6C1-83.5,0.3-83.8-0.7-83.8z"/>
		</g>
	</g>
</g>
<g>
	<g transform="translate(130.841107, 199.913704)">
		<g>
			<path d="M2.3-72.1c-0.8,0-1.6-0.1-2.5-0.2c-0.9-0.2-1.7-0.4-2.4-0.9c-0.4-0.2-0.6-0.5-0.7-0.8c-0.1-0.3-0.1-0.6,0-0.9
				c0.1-0.3,0.3-0.5,0.6-0.6c0.3-0.1,0.6-0.1,1,0.1c0.7,0.3,1.4,0.6,2.1,0.7c0.7,0.1,1.3,0.2,1.9,0.2c0.9,0,1.5-0.2,2-0.5
				C4.7-75.3,5-75.7,5-76.2c0-0.8-0.6-1.3-1.7-1.5l-2.8-0.5C-1.8-78.6-3-79.8-3-81.8c0-0.9,0.2-1.7,0.7-2.3c0.5-0.6,1.2-1.1,2-1.5
				c0.9-0.3,1.9-0.5,3-0.5c1.6,0,3.1,0.4,4.3,1.1c0.3,0.2,0.5,0.5,0.6,0.8c0.1,0.3,0,0.6-0.1,0.9c-0.1,0.3-0.4,0.5-0.6,0.6
				c-0.3,0.1-0.6,0.1-1-0.1c-0.6-0.3-1.1-0.5-1.6-0.6c-0.5-0.1-1-0.2-1.5-0.2c-0.9,0-1.6,0.2-2,0.5c-0.4,0.3-0.6,0.7-0.6,1.2
				c0,0.8,0.5,1.3,1.6,1.5L4.4-80c1.2,0.2,2.1,0.6,2.7,1.2c0.6,0.6,0.9,1.4,0.9,2.4c0,1.3-0.5,2.4-1.6,3.2
				C5.5-72.5,4.1-72.1,2.3-72.1z"/>
		</g>
	</g>
</g>
<g>
	<g transform="translate(142.398846, 199.913704)">
		<g>
			<path d="M7.4-72.1c-3.6,0-5.4-1.8-5.4-5.3v-5.9H0.7c-0.9,0-1.4-0.4-1.4-1.3c0-0.9,0.5-1.3,1.4-1.3h1.4v-2.5
				c0-1.2,0.6-1.7,1.8-1.7c1.1,0,1.7,0.6,1.7,1.7v2.5h2.9c0.9,0,1.4,0.4,1.4,1.3c0,0.9-0.5,1.3-1.4,1.3H5.5v5.7c0,0.9,0.2,1.6,0.6,2
				c0.4,0.4,1,0.6,1.9,0.6c0.3,0,0.6,0,0.8-0.1c0.2-0.1,0.4-0.1,0.6-0.1c0.2,0,0.4,0.1,0.5,0.2c0.2,0.2,0.2,0.5,0.2,0.9
				c0,0.4-0.1,0.7-0.2,1c-0.1,0.3-0.3,0.5-0.6,0.6c-0.2,0.1-0.6,0.1-1,0.2C8-72.1,7.7-72.1,7.4-72.1z"/>
		</g>
	</g>
</g>
<g>
	<g transform="translate(151.810361, 199.913704)">
		<g>
			<path d="M8.8-72.1c-1,0-1.8-0.2-2.6-0.6c-0.8-0.4-1.4-0.9-1.8-1.5c-0.4-0.6-0.6-1.4-0.6-2.2c0-1,0.3-1.8,0.8-2.3
				c0.5-0.6,1.3-1,2.5-1.2c1.2-0.3,2.7-0.4,4.6-0.4h1v-0.6c0-0.9-0.2-1.6-0.6-2c-0.4-0.4-1.1-0.6-2-0.6c-0.5,0-1.1,0.1-1.7,0.2
				c-0.6,0.1-1.3,0.3-1.9,0.7c-0.4,0.2-0.8,0.2-1.1,0.1C5-82.7,4.8-83,4.7-83.3c-0.1-0.3-0.1-0.7,0.1-1c0.1-0.3,0.4-0.6,0.9-0.8
				c0.8-0.3,1.6-0.6,2.4-0.7c0.8-0.2,1.5-0.2,2.1-0.2c2,0,3.4,0.5,4.4,1.4c1,0.9,1.4,2.3,1.4,4.2v6.6c0,1.2-0.5,1.8-1.6,1.8
				c-1.1,0-1.6-0.6-1.6-1.8v-0.6c-0.3,0.8-0.8,1.3-1.5,1.8C10.6-72.3,9.8-72.1,8.8-72.1z M9.5-74.4c0.9,0,1.6-0.3,2.2-0.9
				c0.6-0.6,0.9-1.4,0.9-2.4v-0.6h-0.9c-1.7,0-2.9,0.1-3.6,0.4c-0.7,0.3-1,0.8-1,1.5c0,0.6,0.2,1.1,0.6,1.5
				C8.2-74.6,8.8-74.4,9.5-74.4z"/>
		</g>
	</g>
</g>
<g>
	<g transform="translate(164.585663, 199.913704)">
		<g>
			<path d="M13.5-72.1c-3.3,0-5-1.9-5-5.6v-6.6c0-1.2,0.6-1.8,1.7-1.8c1.2,0,1.7,0.6,1.7,1.8v6.7c0,1,0.2,1.7,0.6,2.1
				c0.4,0.5,1,0.7,1.8,0.7c0.9,0,1.7-0.3,2.2-0.9c0.6-0.6,0.9-1.5,0.9-2.5v-6c0-1.2,0.6-1.8,1.7-1.8c1.2,0,1.7,0.6,1.7,1.8v10.4
				c0,1.2-0.6,1.8-1.7,1.8c-1.1,0-1.7-0.6-1.7-1.8v-0.5C16.7-72.8,15.4-72.1,13.5-72.1z"/>
		</g>
	</g>
</g>
<g>
	<g transform="translate(178.021347, 199.913704)">
		<g>
			<path d="M14.9-72.1c-1.2,0-1.8-0.6-1.8-1.8v-10.4c0-1.2,0.6-1.8,1.7-1.8c1.1,0,1.7,0.6,1.7,1.8v0.9c0.7-1.6,2.1-2.5,4.2-2.6
				c0.8-0.1,1.2,0.4,1.3,1.4c0.1,1-0.4,1.5-1.4,1.6L20-83.1c-2.3,0.2-3.4,1.4-3.4,3.5v5.7C16.6-72.7,16-72.1,14.9-72.1z"/>
		</g>
	</g>
</g>
<g>
	<g transform="translate(187.597957, 199.913704)">
		<g>
			<path d="M20.8-72.1c-1,0-1.8-0.2-2.6-0.6c-0.8-0.4-1.4-0.9-1.8-1.5c-0.4-0.6-0.6-1.4-0.6-2.2c0-1,0.3-1.8,0.8-2.3
				c0.5-0.6,1.3-1,2.5-1.2c1.2-0.3,2.7-0.4,4.6-0.4h1v-0.6c0-0.9-0.2-1.6-0.6-2c-0.4-0.4-1.1-0.6-2-0.6c-0.5,0-1.1,0.1-1.7,0.2
				c-0.6,0.1-1.3,0.3-1.9,0.7c-0.4,0.2-0.8,0.2-1.1,0.1c-0.3-0.2-0.5-0.4-0.6-0.7c-0.1-0.3-0.1-0.7,0.1-1c0.1-0.3,0.4-0.6,0.9-0.8
				c0.8-0.3,1.6-0.6,2.4-0.7c0.8-0.2,1.5-0.2,2.1-0.2c2,0,3.4,0.5,4.4,1.4c1,0.9,1.4,2.3,1.4,4.2v6.6c0,1.2-0.5,1.8-1.6,1.8
				c-1.1,0-1.6-0.6-1.6-1.8v-0.6c-0.3,0.8-0.8,1.3-1.5,1.8C22.5-72.3,21.7-72.1,20.8-72.1z M21.5-74.4c0.9,0,1.6-0.3,2.2-0.9
				c0.6-0.6,0.9-1.4,0.9-2.4v-0.6h-0.9c-1.7,0-2.9,0.1-3.6,0.4c-0.7,0.3-1,0.8-1,1.5c0,0.6,0.2,1.1,0.6,1.5
				C20.1-74.6,20.7-74.4,21.5-74.4z"/>
		</g>
	</g>
</g>
<g>
	<g transform="translate(200.373258, 199.913704)">
		<g>
			<path d="M22.3-72.1c-1.1,0-1.7-0.6-1.7-1.8v-10.4c0-1.2,0.6-1.8,1.7-1.8c1.1,0,1.7,0.6,1.7,1.8v0.6c0.5-0.8,1.1-1.3,1.9-1.8
				c0.8-0.4,1.7-0.6,2.6-0.6c3.2,0,4.8,1.8,4.8,5.5v6.7c0,1.2-0.6,1.8-1.7,1.8c-1.2,0-1.7-0.6-1.7-1.8v-6.5c0-1-0.2-1.8-0.6-2.3
				c-0.4-0.5-1-0.7-1.8-0.7c-1,0-1.8,0.3-2.4,1C24.3-81.8,24-81,24-79.9v6C24-72.7,23.4-72.1,22.3-72.1z"/>
		</g>
	</g>
</g>
<g>
	<g transform="translate(213.932755, 199.913704)">
		<g>
			<path d="M31.3-72.1c-3.6,0-5.4-1.8-5.4-5.3v-5.9h-1.4c-0.9,0-1.4-0.4-1.4-1.3c0-0.9,0.5-1.3,1.4-1.3h1.4v-2.5
				c0-1.2,0.6-1.7,1.8-1.7c1.1,0,1.7,0.6,1.7,1.7v2.5h2.9c0.9,0,1.4,0.4,1.4,1.3c0,0.9-0.5,1.3-1.4,1.3h-2.9v5.7
				c0,0.9,0.2,1.6,0.6,2c0.4,0.4,1,0.6,1.9,0.6c0.3,0,0.6,0,0.8-0.1c0.2-0.1,0.4-0.1,0.6-0.1c0.2,0,0.4,0.1,0.5,0.2
				C34-74.7,34-74.4,34-74c0,0.4-0.1,0.7-0.2,1c-0.1,0.3-0.3,0.5-0.6,0.6c-0.2,0.1-0.6,0.1-1,0.2C31.9-72.1,31.6-72.1,31.3-72.1z"/>
		</g>
	</g>
</g>
<g>
	<g transform="translate(223.344273, 199.913704)">
		<g>
			<path d="M33.2-72.1c-0.8,0-1.6-0.1-2.5-0.2c-0.9-0.2-1.7-0.4-2.4-0.9c-0.4-0.2-0.6-0.5-0.7-0.8c-0.1-0.3-0.1-0.6,0-0.9
				c0.1-0.3,0.3-0.5,0.6-0.6c0.3-0.1,0.6-0.1,1,0.1c0.7,0.3,1.4,0.6,2.1,0.7c0.7,0.1,1.3,0.2,1.9,0.2c0.9,0,1.5-0.2,2-0.5
				c0.4-0.3,0.6-0.7,0.6-1.2c0-0.8-0.6-1.3-1.7-1.5l-2.8-0.5c-2.3-0.4-3.5-1.6-3.5-3.6c0-0.9,0.2-1.7,0.7-2.3c0.5-0.6,1.2-1.1,2-1.5
				c0.9-0.3,1.9-0.5,3-0.5c1.6,0,3.1,0.4,4.3,1.1c0.3,0.2,0.5,0.5,0.6,0.8c0.1,0.3,0,0.6-0.1,0.9c-0.1,0.3-0.4,0.5-0.6,0.6
				c-0.3,0.1-0.6,0.1-1-0.1c-0.6-0.3-1.1-0.5-1.6-0.6c-0.5-0.1-1-0.2-1.5-0.2c-0.9,0-1.6,0.2-2,0.5C31.2-82.9,31-82.5,31-82
				c0,0.8,0.5,1.3,1.6,1.5l2.8,0.5c1.2,0.2,2.1,0.6,2.7,1.2c0.6,0.6,0.9,1.4,0.9,2.4c0,1.3-0.5,2.4-1.6,3.2
				C36.3-72.5,34.9-72.1,33.2-72.1z"/>
		</g>
	</g>
</g>
<g>
	<g transform="translate(234.902015, 199.913704)">
		<g>
			<path d="M32.6-72.1c-0.6,0-1.1-0.2-1.4-0.7c-0.3-0.4-0.3-1,0-1.6l7.3-16.1c0.2-0.5,0.5-0.9,0.9-1.1c0.3-0.2,0.7-0.4,1.2-0.4
				c0.4,0,0.8,0.1,1.1,0.4c0.3,0.2,0.6,0.6,0.9,1.1l7.3,16.1c0.3,0.6,0.3,1.2,0,1.6c-0.2,0.4-0.7,0.6-1.3,0.6
				c-0.5,0-0.9-0.1-1.2-0.4c-0.3-0.2-0.5-0.6-0.8-1.1l-1.4-3.2h-9.5l-1.4,3.2c-0.2,0.5-0.5,0.9-0.8,1.2
				C33.4-72.3,33.1-72.1,32.6-72.1z M40.5-87.9L37-79.7h7L40.5-87.9L40.5-87.9z"/>
		</g>
	</g>
</g>
<g>
	<g transform="translate(251.742761, 199.913704)">
		<g>
			<path d="M42.9-72.1c-1.2,0-2.2-0.3-3.1-0.9c-0.9-0.6-1.6-1.4-2.1-2.4c-0.5-1.1-0.8-2.3-0.8-3.7c0-1.4,0.2-2.7,0.8-3.7
				c0.5-1,1.2-1.8,2.1-2.4c0.9-0.6,1.9-0.9,3.1-0.9c1,0,1.8,0.2,2.6,0.6c0.8,0.4,1.4,1,1.8,1.7v-6.5c0-1.2,0.6-1.7,1.7-1.7
				c1.2,0,1.7,0.6,1.7,1.7v16.4c0,1.2-0.6,1.8-1.7,1.8c-1.1,0-1.7-0.6-1.7-1.8v-0.6c-0.4,0.7-1,1.3-1.8,1.8
				C44.7-72.3,43.8-72.1,42.9-72.1z M43.8-74.7c1,0,1.9-0.4,2.5-1.1c0.6-0.8,0.9-1.9,0.9-3.3c0-1.5-0.3-2.5-0.9-3.3
				c-0.6-0.7-1.5-1.1-2.5-1.1c-1,0-1.9,0.4-2.5,1.1c-0.6,0.7-0.9,1.8-0.9,3.3c0,1.5,0.3,2.6,0.9,3.3C42-75.1,42.8-74.7,43.8-74.7z"
				/>
		</g>
	</g>
</g>
<g>
	<g transform="translate(265.611809, 199.913704)">
		<g>
			<path d="M47.8-72.1c-0.9,0-1.6-0.5-2-1.5l-4.4-10.2c-0.3-0.6-0.3-1.1,0-1.6c0.2-0.5,0.8-0.7,1.5-0.7c0.4,0,0.8,0.1,1,0.3
				c0.3,0.2,0.5,0.6,0.7,1.1l3.3,8.2l3.4-8.3c0.2-0.5,0.4-0.9,0.7-1.1c0.3-0.2,0.6-0.3,1.1-0.3c0.6,0,1,0.2,1.2,0.7
				c0.2,0.5,0.2,1,0,1.6l-4.5,10.2C49.4-72.6,48.7-72.1,47.8-72.1z"/>
		</g>
	</g>
</g>
<g>
	<g transform="translate(277.97438, 199.913704)">
		<g>
			<path d="M48.2-88.6c-0.6,0-1.1-0.2-1.5-0.5c-0.4-0.3-0.5-0.8-0.5-1.3c0-0.6,0.2-1,0.5-1.4c0.4-0.3,0.9-0.5,1.5-0.5
				c1.4,0,2,0.6,2,1.8C50.2-89.2,49.5-88.6,48.2-88.6z M48.2-72.2c-0.6,0-1-0.2-1.3-0.5c-0.3-0.3-0.4-0.8-0.4-1.4v-10.1
				c0-1.2,0.6-1.9,1.7-1.9c1.2,0,1.7,0.6,1.7,1.9V-74c0,0.6-0.1,1.1-0.4,1.4C49.2-72.3,48.7-72.2,48.2-72.2z"/>
		</g>
	</g>
</g>
<g>
	<g transform="translate(284.723762, 199.913704)">
		<g>
			<path d="M53.6-72.1c-0.8,0-1.6-0.1-2.5-0.2c-0.9-0.2-1.7-0.4-2.4-0.9c-0.4-0.2-0.6-0.5-0.7-0.8c-0.1-0.3-0.1-0.6,0-0.9
				c0.1-0.3,0.3-0.5,0.6-0.6c0.3-0.1,0.6-0.1,1,0.1c0.7,0.3,1.4,0.6,2.1,0.7c0.7,0.1,1.3,0.2,1.9,0.2c0.9,0,1.5-0.2,2-0.5
				c0.4-0.3,0.6-0.7,0.6-1.2c0-0.8-0.6-1.3-1.7-1.5l-2.8-0.5c-2.3-0.4-3.5-1.6-3.5-3.6c0-0.9,0.2-1.7,0.7-2.3c0.5-0.6,1.2-1.1,2-1.5
				c0.9-0.3,1.9-0.5,3-0.5c1.6,0,3.1,0.4,4.3,1.1c0.3,0.2,0.5,0.5,0.6,0.8c0.1,0.3,0,0.6-0.1,0.9c-0.1,0.3-0.4,0.5-0.6,0.6
				c-0.3,0.1-0.6,0.1-1-0.1c-0.6-0.3-1.1-0.5-1.6-0.6c-0.5-0.1-1-0.2-1.5-0.2c-0.9,0-1.6,0.2-2,0.5c-0.4,0.3-0.6,0.7-0.6,1.2
				c0,0.8,0.5,1.3,1.6,1.5l2.8,0.5c1.2,0.2,2.1,0.6,2.7,1.2c0.6,0.6,0.9,1.4,0.9,2.4c0,1.3-0.5,2.4-1.6,3.2
				C56.8-72.5,55.4-72.1,53.6-72.1z"/>
		</g>
	</g>
</g>
<g>
	<g transform="translate(296.281492, 199.913704)">
		<g>
			<path d="M58.7-72.1c-1.4,0-2.6-0.3-3.6-0.9c-1-0.6-1.8-1.4-2.4-2.4c-0.6-1.1-0.9-2.3-0.9-3.7c0-1.4,0.3-2.7,0.9-3.7
				c0.6-1,1.4-1.8,2.4-2.4c1-0.6,2.2-0.9,3.6-0.9c1.4,0,2.6,0.3,3.6,0.9c1,0.6,1.8,1.4,2.4,2.4c0.6,1,0.9,2.3,0.9,3.7
				c0,1.4-0.3,2.7-0.9,3.7c-0.6,1.1-1.4,1.9-2.4,2.4C61.3-72.4,60.1-72.1,58.7-72.1z M58.7-74.7c1,0,1.9-0.4,2.5-1.1
				c0.6-0.8,0.9-1.9,0.9-3.3c0-1.5-0.3-2.5-0.9-3.3c-0.6-0.7-1.5-1.1-2.5-1.1c-1,0-1.9,0.4-2.5,1.1c-0.6,0.7-0.9,1.8-0.9,3.3
				c0,1.5,0.3,2.6,0.9,3.3C56.8-75.1,57.6-74.7,58.7-74.7z"/>
		</g>
	</g>
</g>
<g>
	<g transform="translate(309.655264, 199.913704)">
		<g>
			<path d="M58.8-72.1c-1.2,0-1.8-0.6-1.8-1.8v-10.4c0-1.2,0.6-1.8,1.7-1.8c1.1,0,1.7,0.6,1.7,1.8v0.9c0.7-1.6,2.1-2.5,4.2-2.6
				c0.8-0.1,1.2,0.4,1.3,1.4c0.1,1-0.4,1.5-1.4,1.6l-0.6,0.1c-2.2,0.2-3.4,1.4-3.4,3.5v5.7C60.5-72.7,59.9-72.1,58.8-72.1z"/>
		</g>
	</g>
</g>
</svg>
